# xmcd
#
# Track frame offsets:
#	150
#	17530
#	33011
#	48624
#	65878
#	83216
#	97925
#	115316
#	135351
#	153079
#	169137
#	184215
#
# Disc length: 2681
#
# Revision: 1
# Processed by: cddbd v1.5.1PL0 Copyright (c) Steve Scherf et al.
# Submitted via: EasyCDDAExtractor 5.0.5.1
# Normalized: r0:TDELIM( - )
#
DISCID=920a770c
DTITLE=Aa. Vv. - Dance Revolution By Albertino [CD 7 - Techno - Trance)
DYEAR=2002
DGENRE=Dance
TTITLE0=Robert Miles - Children
TTITLE1=Jaydee - Plastic Dreams
TTITLE2=Westbam - Hold Me Back
TTITLE3=Fragma - Toca's Miracle
TTITLE4=Mauro Picotto - Komodo (Save A Soul)
TTITLE5=ATB - 9 PM (Till I Come)
TTITLE6=Paul Van Dyk - For An Angel
TTITLE7=Planet Perfecto - Bullet In The Gun
TTITLE8=Members Of Mayday - Sonic Empire
TTITLE9=Scooter - Hyper Hyper
TTITLE10=Da Hool - Meet Her At The Love Parade
TTITLE11=Storm - Storm
EXTD=
EXTT0=
EXTT1=
EXTT2=
EXTT3=
EXTT4=
EXTT5=
EXTT6=
EXTT7=
EXTT8=
EXTT9=
EXTT10=
EXTT11=
PLAYORDER=
